<svg width="160" height="30" fill="none" xmlns="http://www.w3.org/2000/svg"><path d="M.931 7.605c2.724-1.472 5.655-2.208 8.793-2.208 2.437 0 4.443.495 6.017 1.483 1.587.988 2.38 2.245 2.38 3.77 0 1.246-.518 2.352-1.552 3.319-1.034.956-2.448 1.649-4.241 2.078.793 2.041 1.867 4.028 3.224 5.962 1.367 1.933 2.735 3.415 4.103 4.446l-.258.081a23.424 23.424 0 00-5.035 2.32l-.259.161-.086-.515c-.735-4.157-1.764-7.68-3.086-10.57l-.069-.16c-.793.343-1.856.617-3.19.82l-.138.017v6.026l3.035 3.029H1.655l-.276-.435h8.207l-2.5-2.481v-6.493l.362-.049c1.31-.129 2.408-.37 3.293-.725a2.654 2.654 0 01-.12-.242l-.173-.467a2.703 2.703 0 00-.086-.193c-.713.193-2.057.403-4.034.628l-.19.032v7.186l1.965 1.918H.483l2.241-1.918v-5.413l-.138.016c-.666.14-1.27.295-1.81.467l-.138.049-.155-.323c.506-.182.902-.306 1.19-.37l.913-.21.138-.032v-.838c-.678 0-1.523.14-2.534.42l-.19.064c.023-.15.138-.5.345-1.048.023-.043.103-.284.241-.725l.052-.145c.517.032.92.049 1.207.049.31 0 .598-.017.862-.049V8.41c-.529-.3-1.075-.553-1.638-.757l-.138-.048zm5.207-.42v8.685c.333 0 .65-.027.948-.08V7.863c.632-.162 1.391-.242 2.276-.242 2.241 0 3.764.687 4.569 2.062-.85-.644-1.598-1.085-2.241-1.321-.644-.247-1.414-.37-2.31-.37-.702 0-1.317.064-1.846.193v7.604l.19-.032c2.265-.386 3.943-.993 5.035-1.82 1.103-.838 1.655-1.923 1.655-3.255 0-1.192-.495-2.175-1.483-2.948-.988-.784-2.236-1.177-3.741-1.177-1.207 0-2.224.21-3.052.629zm8.328 9.668c.724 2.212 2.005 4.377 3.844 6.493 1.15 1.321 2.604 2.508 4.362 3.56a28.265 28.265 0 00-7.413 2.997l-.156.097-.344-.258a25.434 25.434 0 017.017-2.964c-3.31-2.063-5.914-5.36-7.81-9.893l-.104-.274c3.517-1.246 5.276-3.147 5.276-5.703 0-1.053-.454-2.202-1.362-3.448 1.16.988 1.741 2.245 1.741 3.77 0 2.47-1.684 4.345-5.051 5.623z" fill="#4E9F3D"/><path d="M38.535 5.671L36.74 7.572l2.828 7.025.69-.354-2.552-6.348 1.828-1.966.448.177-1.742 1.885 2.414 6.01a3.52 3.52 0 00.242-.177l.569-.451c.344-.258.563-.44.655-.548.298 1.224.758 2.32 1.379 3.287a12.68 12.68 0 00-.724-.032c-1.092 0-1.89.16-2.397.483l3.121 7.91 2.586 1.87H37.38l2.38-1.87-1.914-4.704c-1.264 1.192-2.236 2.326-2.914 3.4l-.396-.097c.678-1.053 1.69-2.229 3.034-3.528l.138-.162-.328-.709a14.636 14.636 0 00-3.396 3.706l-.31-.467c-.598-.892-1.363-1.907-2.294-3.045l-.172-.194c-.885 1.837-1.328 3.33-1.328 4.48 0 .676.121 1.25.362 1.724.253.461.851 1.24 1.794 2.336.08.096.206.247.379.45h-9.31l-.345-.434h8.776l-.294-.339c-.758-.859-1.258-1.525-1.5-1.997-.23-.484-.344-1.048-.344-1.692 0-1.096.477-2.728 1.43-4.898l-.758-.741c-.15.343-.34.848-.569 1.514l-.569 1.644c-.31.88-.466 1.61-.466 2.19 0 .602.11 1.102.328 1.5.219.397.678.94 1.38 1.627.068.064.172.166.31.306h-8.62c1.643-.795 2.942-1.864 3.896-3.207.965-1.342 1.92-3.415 2.862-6.219l.069-.225c-.61-.484-1.489-.779-2.638-.886.632-.881 1.12-1.8 1.465-2.755.161.14.259.225.293.257l.776.677c.265.236.58.478.949.725l.31-.709-.207-.161a38.238 38.238 0 00-1.448-1.144l-.155-.113.275-.354c.61.376 1.196.81 1.759 1.305l2.345-6.026-1.828-1.837h7.949zm-4.26 5.172l-1.896 4.673c.104.107.161.171.173.193l.707.741c.379.387.862.988 1.448 1.805l.172.241a14.88 14.88 0 011.759-1.724l-2.362-5.929zM33.5 8.974l-2.741 6.767a22.86 22.86 0 012.258 2.481l.793 1.031c.012.011.07.081.173.21a1.32 1.32 0 00.172-.177l.242-.274c.034-.043.097-.113.19-.21a17.114 17.114 0 00-2.811-3.141l2.207-5.446-.483-1.24zm10.138 4.624c.253.967.885 2.293 1.897 3.98a7.025 7.025 0 00-.432-.049l-1.396-.112a18.332 18.332 0 00-1.38-.08c-.045 0-.16.005-.344.015l2.88 7.138 3.844 3.174h-9.983l-.327-.435h9.155l-3.104-2.562-3.069-7.589c.391-.096.84-.145 1.345-.145.62 0 1.31.049 2.07.145l-.208-.354c-.735-1.268-1.23-2.411-1.483-3.432l.535.306zm6.621-7.927H58c3.287 0 5.626.425 7.017 1.273 1.77 1.064 2.655 2.54 2.655 4.43 0 1.15-.339 2.15-1.017 2.998-.678.848-1.626 1.46-2.845 1.836-1.218.376-3.155.564-5.81.564h-2.12v7.798l2.103 1.773h-8.017l2.396-1.885v-6.461a4.322 4.322 0 00-.293-.016c-.828 0-1.62.166-2.38.5l-.154-.29c.77-.409 1.46-.613 2.068-.613h.621l.138-.016v-.79a5.46 5.46 0 00-.534-.048c-1.23 0-2.213.28-2.949.838l-.172-.242c.701-1.203 1.828-1.804 3.38-1.804h.275V7.62L50.26 5.67zm5.62 1.66v8.072h.224l.449.016c.046 0 .12-.005.224-.016V8.217h1.896c1.472 0 2.506.123 3.104.37.61.237 1.126.736 1.552 1.499a3.325 3.325 0 00-1.604-1.144c-.632-.226-1.529-.338-2.69-.338H57.26v6.799c2.276 0 3.942-.312 5-.935 1.069-.623 1.603-1.6 1.603-2.932 0-1.493-.477-2.578-1.431-3.255-.942-.676-2.465-1.015-4.569-1.015-.54 0-1.201.022-1.983.065zm10.914.064c.701.323 1.264.892 1.69 1.708.425.806.638 1.724.638 2.755 0 2.331-.966 4.007-2.897 5.027-1.46.773-3.954 1.16-7.483 1.16-.586 0-1.08-.01-1.482-.032v6.654l2.706 2.997h-8.637l-.466-.435h8.12l-2.206-2.385v-7.266c1 .054 2.063.08 3.19.08 2.965 0 5.166-.488 6.603-1.466 1.437-.977 2.155-2.476 2.155-4.495 0-.838-.138-1.563-.414-2.175-.276-.623-.781-1.332-1.517-2.127zm22.621-1.724c-.104.183-.173.306-.207.37l-1.172 1.934c-.403.688-.776 1.547-1.121 2.578l-.035.08-.172-.112-.052-.21c-.333-1.224-.81-2.073-1.43-2.545-.61-.473-1.547-.71-2.811-.71-.517 0-1.035.022-1.552.065h-.207v17.465l2.035 1.757h-7.88l2.414-1.885V8.426L76 8.41c-1.184 0-2.029.22-2.534.66-.495.43-.788 1.193-.88 2.289h-.448c.126-1.257.471-2.132 1.034-2.626.575-.495 1.518-.742 2.828-.742l1.034.017h.19v-.79a15.327 15.327 0 00-1.672-.097c-1.483 0-2.552.285-3.207.854-.655.559-1.017 1.51-1.086 2.852h-.207c-.495-1.493-1.259-3.158-2.293-4.995l-.104-.16h20.759zM90.5 6.686c-.793.946-1.626 2.514-2.5 4.705l-.069.161-.38-.306.052-.145c.851-2.223 1.673-3.77 2.466-4.64l.086-.097.345.322zM85.897 9.2c-.886-.537-1.92-.806-3.104-.806-.264 0-.54.016-.828.049l.07 16.192 2.74 3.029h-8.81l-.396-.435h8.259l-2.31-2.465V7.975l.93-.016c1.115 0 1.903.086 2.362.258.472.161.834.489 1.087.983zM104 9.264l-.293-.16c-1.104-.57-2.115-.855-3.035-.855-3.023 0-4.534 2.777-4.534 8.33 0 4.06.937 6.75 2.81 8.072l-.155.161c-1.15-.763-1.971-1.762-2.465-2.997-.483-1.246-.725-2.927-.725-5.043 0-5.961 1.679-8.942 5.035-8.942 1.529 0 2.649.478 3.362 1.434zm-3.69-3.802c2.793 0 5.023.988 6.69 2.964 1.678 1.977 2.517 4.62 2.517 7.927 0 3.126-.827 5.618-2.483 7.476-1.643 1.858-3.856 2.787-6.637 2.787-2.196 0-4.15-.655-5.863-1.965-2.517-1.933-3.775-4.796-3.775-8.588 0-3.243.862-5.821 2.586-7.733 1.724-1.912 4.046-2.868 6.965-2.868zm0 1.385c-3.885 0-5.827 3.19-5.827 9.57 0 5.898 1.914 8.846 5.741 8.846 1.782 0 3.138-.779 4.069-2.336.931-1.568 1.397-3.856 1.397-6.864 0-3.405-.449-5.778-1.345-7.121-.943-1.396-2.288-2.095-4.035-2.095zm5.5-.563c1.644.74 2.943 2.008 3.897 3.802.954 1.794 1.431 3.867 1.431 6.219 0 3.459-.943 6.251-2.828 8.378-1.873 2.127-4.339 3.19-7.396 3.19-1.954 0-3.782-.617-5.483-1.853v-.08c1.425.977 3.213 1.466 5.362 1.466 2.885 0 5.253-1.015 7.104-3.045 1.85-2.03 2.775-4.624 2.775-7.782 0-2.352-.425-4.41-1.275-6.17-.84-1.762-2.035-3.078-3.587-3.948v-.177zm7.673 1.321c2.724-1.472 5.655-2.208 8.793-2.208 2.437 0 4.442.495 6.017 1.483 1.586.988 2.379 2.245 2.379 3.77 0 1.246-.517 2.352-1.551 3.319-1.035.956-2.449 1.649-4.242 2.078.793 2.041 1.868 4.028 3.224 5.962 1.368 1.933 2.736 3.415 4.104 4.446l-.259.081a23.423 23.423 0 00-5.034 2.32l-.259.161-.086-.515c-.736-4.157-1.764-7.68-3.086-10.57l-.069-.16c-.793.343-1.857.617-3.19.82l-.138.017v6.026l3.035 3.029h-8.914l-.276-.435h8.207l-2.5-2.481v-6.493l.362-.049c1.31-.129 2.408-.37 3.293-.725a2.85 2.85 0 01-.121-.242l-.172-.467a2.414 2.414 0 00-.086-.193c-.713.193-2.058.403-4.035.628l-.189.032v7.186l1.965 1.918h-7.621l2.242-1.918v-5.413l-.138.016c-.667.14-1.27.295-1.81.467l-.138.049-.156-.323c.506-.182.903-.306 1.19-.37l.914-.21.138-.032v-.838c-.678 0-1.523.14-2.535.42l-.189.064c.023-.15.138-.5.345-1.048.023-.043.103-.284.241-.725l.052-.145c.517.032.919.049 1.207.049.31 0 .597-.017.862-.049V8.41a10.66 10.66 0 00-1.638-.757l-.138-.048zm5.207-.42v8.685c.333 0 .649-.027.948-.08V7.863c.632-.162 1.391-.242 2.276-.242 2.241 0 3.764.687 4.569 2.062-.851-.644-1.598-1.085-2.242-1.321-.643-.247-1.413-.37-2.31-.37-.701 0-1.316.064-1.845.193v7.604l.19-.032c2.264-.386 3.942-.993 5.034-1.82 1.104-.838 1.656-1.923 1.656-3.255 0-1.192-.495-2.175-1.483-2.948-.989-.784-2.236-1.177-3.742-1.177-1.207 0-2.224.21-3.051.629zm8.327 9.668c.724 2.212 2.006 4.377 3.845 6.493 1.149 1.321 2.604 2.508 4.362 3.56a28.278 28.278 0 00-7.414 2.997l-.155.097-.345-.258a25.443 25.443 0 017.018-2.964c-3.311-2.063-5.914-5.36-7.811-9.893l-.103-.274c3.517-1.246 5.276-3.147 5.276-5.703 0-1.053-.454-2.202-1.362-3.448 1.161.988 1.741 2.245 1.741 3.77 0 2.47-1.684 4.345-5.052 5.623zM159.224 0l.104.129-.173.177c-2.057 1.998-3.753 4.028-5.086 6.09l-1.103 1.676-6.414 9.586V24.2l2.5 2.143h-8.397l2.483-2.143v-6.542L139 11.713l-.897-1.337c-.816-1.192-1.488-2.062-2.017-2.61-.517-.548-1.287-1.198-2.31-1.95l-.19-.145h8.707l-2.138 2.079 5.742 8.088.551-.822-5.12-7.266 1.81-1.611.362.257-1.569 1.354 4.776 6.88 3.862-5.688c1.115-1.654 1.672-2.89 1.672-3.706 0-.687-.488-1.471-1.465-2.352 3.345-.752 6.092-1.681 8.241-2.787l.207-.097zm.776.967v.66l-.172.161a22.598 22.598 0 00-2.5 2.578c-.69.86-1.719 2.304-3.087 4.334L148 17.884V24.2l3.069 3.464h-10.793l-.207-.435h10.086l-2.621-3.03v-6.428l6.363-9.377 1-1.482c1.781-2.653 3.482-4.635 5.103-5.945z" fill="#4E9F3D"/></svg>